<svg width="100%" height="100%" viewBox="0 0 512 512" version="1.1" xmlns="http://www.w3.org/2000/svg" xmlns:xlink="http://www.w3.org/1999/xlink" xml:space="preserve" xmlns:serif="http://www.serif.com/" style="fill-rule:evenodd;clip-rule:evenodd;stroke-linejoin:round;stroke-miterlimit:2;">
    <path d="M230.668,18.668C225.188,24.148 228.316,34.904 238.052,44.048C245.808,51.336 249.192,52.408 252.852,48.748C261.868,39.732 267.956,43.228 265.408,55.96C263.536,65.32 264.976,69.508 272.04,75.228L281.068,82.536L270.48,140.268C264.66,172.02 257.244,206.76 254,217.464C250.756,228.172 249.044,238.456 250.196,240.316C253.852,246.232 235.336,337.808 229.548,342.44C226.496,344.884 224,351.008 224,356.048C224,374.504 206.504,448 202.112,448C194.16,448 176.064,457.852 176.032,462.2C175.98,469.212 185.08,476 194.532,476C199.948,476 204.46,479.148 206,484C209.164,493.972 221.82,494.392 228.772,484.756C237.132,473.168 243.604,470.776 281.86,465.144C342.524,456.208 345.736,455.62 354,451.972C358.4,450.028 370.1,444.924 380,440.632C434.796,416.876 448.316,407.48 465.908,380.944C500.048,329.44 500.076,286.22 466.02,218C455.564,197.06 402.572,132 395.972,132C391.968,132 389.968,139.132 386.28,166.536C384.228,181.792 385.768,185.416 406.164,213.344C450.412,273.936 458.42,310.92 434.448,343.928C421.52,361.728 385.332,389.996 370,394.272C361.244,396.712 345.928,402.936 335.056,408.468C331.236,410.412 325.42,412 322.132,412C318.844,412 306.044,418.468 293.688,426.372C275.076,438.28 268.888,440.308 257.612,438.192C244.352,435.704 240.984,429.108 243.204,410C244.5,398.852 255.524,360.364 259.6,352.744C262.164,347.956 268.504,322.876 273.688,297.02C288.504,223.12 308.696,130.78 311.96,122C314.628,114.828 317.208,116.392 336.888,137.108C362.068,163.616 366.656,162.544 370.6,129.224C372.912,109.724 372.804,109.5 353.968,93.8C343.544,85.108 331.636,75.088 327.508,71.532C321.82,66.628 320,59.604 320,42.532C320,21.36 319.416,20 310.316,20C302.812,20 300.044,22.696 298,32C296.552,38.6 293.796,44 291.884,44C289.968,44 277.96,37.704 265.2,30.012C241.752,15.872 235.512,13.82 230.668,18.668" style="fill:rgb(217,221,251);"/>
    <g transform="matrix(1.00594,-0.00505955,0.00505955,1.00594,-2.41913,-0.40224)">
        <path d="M112.704,43C105.908,60.528 85.952,125.724 70.772,180C63.08,207.5 52.972,242.6 48.308,258C43.644,273.4 37.232,300.4 34.06,318C30.884,335.6 25.62,363.5 22.356,380C11.464,435.068 14.464,448 38.128,448C50.836,448 59.712,437.796 81.604,398C85.236,391.4 92.68,378.8 98.144,370C103.608,361.2 111.872,346.328 116.504,336.948C121.136,327.572 127.118,319.524 128.524,317.676C131.454,313.825 134.728,309.728 137.916,302.728C141.1,295.728 149.192,281 155.892,270C162.596,259 173.912,239.396 181.04,226.436C199.224,193.376 202.552,187.848 206.904,183.496C209.348,181.052 211.664,201.12 213.3,238.832C216.104,303.624 221.414,343.482 228.652,344.774C232.009,345.374 237.153,319.232 241.917,294.112C250.141,250.78 251.044,247.544 245.744,202C237.764,133.412 238.26,124.412 251.412,99.564C263.892,75.988 270.376,43.912 262.62,44.128C255.908,44.312 247.204,51.976 234.364,69C228.14,77.248 219.664,84 215.524,84C210.204,84 208,86.872 208,93.812C208,109.756 201.068,123.104 158.052,190C150.976,201 141.772,215.732 137.596,222.736C133.416,229.744 121.164,249.544 110.368,266.736C99.572,283.932 87.42,304.232 83.368,311.844C74.252,328.976 74.328,326.808 84.432,282C88.896,262.2 98.62,217.2 106.04,182C113.46,146.8 123.208,103.6 127.704,86C138.876,42.252 138.648,32 126.484,32C119.808,32 115.7,35.28 112.704,43M376.816,94.76C374.764,98.74 368.254,108.887 366.99,121.763C365.726,134.639 362.999,145.602 361.343,150.883C359.904,155.474 350.412,189.9 342.368,224C321.232,313.62 319.576,319.372 313.5,324.412C310.476,326.924 308,330.892 308,333.228C308,341.456 291.816,370.78 282.38,379.64L272.836,388.612L267.631,362.917C263.367,331.913 258.814,340.963 247.202,383.915C236.954,421.811 243.98,440 264.776,440C276.136,440 305.724,419.648 320.904,401.392C352.088,363.888 372.304,256.336 386.312,182.452C389.975,163.13 391.743,143.187 394.227,137.191C400.863,121.167 395.672,90.384 387.268,88.792C383.568,88.092 378.864,90.776 376.816,94.76" style="fill:rgb(89,97,167);"/>
    </g>
</svg>
